<svg width="128" height="145" viewBox="0 0 128 145" fill="none" xmlns="http://www.w3.org/2000/svg">
<path d="M67.8182 144.727C53.8788 144.727 41.9091 141.667 31.9091 135.545C21.9697 129.424 14.303 120.97 8.90909 110.182C3.57576 99.3333 0.909088 86.8485 0.909088 72.7273C0.909088 58.5455 3.63636 46.0303 9.09091 35.1818C14.5455 24.2727 22.2424 15.7879 32.1818 9.72726C42.1818 3.60606 54 0.545456 67.6364 0.545456C78.9697 0.545456 89 2.63636 97.7273 6.81818C106.515 10.9394 113.515 16.7879 118.727 24.3636C123.939 31.8788 126.909 40.6667 127.636 50.7273H96.1818C94.9091 44 91.8788 38.3939 87.0909 33.9091C82.3636 29.3636 76.0303 27.0909 68.0909 27.0909C61.3636 27.0909 55.4545 28.9091 50.3636 32.5454C45.2727 36.1212 41.303 41.2727 38.4545 48C35.6667 54.7273 34.2727 62.7879 34.2727 72.1818C34.2727 81.697 35.6667 89.8788 38.4545 96.7273C41.2424 103.515 45.1515 108.758 50.1818 112.455C55.2727 116.091 61.2424 117.909 68.0909 117.909C72.9394 117.909 77.2727 117 81.0909 115.182C84.9697 113.303 88.2121 110.606 90.8182 107.091C93.4242 103.576 95.2121 99.303 96.1818 94.2727H127.636C126.848 104.152 123.939 112.909 118.909 120.545C113.879 128.121 107.03 134.061 98.3636 138.364C89.697 142.606 79.5152 144.727 67.8182 144.727Z" fill="url(#paint0_linear_2_4)"/>
<defs>
<linearGradient id="paint0_linear_2_4" x1="66.5" y1="-106" x2="66.5" y2="204" gradientUnits="userSpaceOnUse">
<stop stop-color="#55EEEE" stop-opacity="0.611765"/>
<stop offset="0.331731" stop-color="#4169B0"/>
<stop offset="0.576923" stop-color="#0060C4"/>
<stop offset="0.783654" stop-color="#0092D6"/>
<stop offset="1" stop-color="#009EE3"/>
</linearGradient>
</defs>
</svg>
